<svg width="64" height="64" viewBox="0 0 150 150" fill="none" xmlns="http://www.w3.org/2000/svg">
<path d="M103.125 19.0714C103.125 16.4003 104.113 13.8386 105.871 11.9499C107.629 10.0611 110.014 9 112.5 9H131.25C133.736 9 136.121 10.0611 137.879 11.9499C139.637 13.8386 140.625 16.4003 140.625 19.0714V139.929H145.312C146.556 139.929 147.748 140.459 148.627 141.403C149.506 142.348 150 143.629 150 144.964C150 146.3 149.506 147.581 148.627 148.525C147.748 149.469 146.556 150 145.312 150H4.6875C3.4443 150 2.25201 149.469 1.37294 148.525C0.49386 147.581 0 146.3 0 144.964C0 143.629 0.49386 142.348 1.37294 141.403C2.25201 140.459 3.4443 139.929 4.6875 139.929H9.375V109.714C9.375 107.043 10.3627 104.481 12.1209 102.593C13.879 100.704 16.2636 99.6429 18.75 99.6429H37.5C39.9864 99.6429 42.371 100.704 44.1291 102.593C45.8873 104.481 46.875 107.043 46.875 109.714V139.929H56.25V69.4286C56.25 66.7575 57.2377 64.1958 58.9959 62.307C60.754 60.4182 63.1386 59.3571 65.625 59.3571H84.375C86.8614 59.3571 89.246 60.4182 91.0041 62.307C92.7623 64.1958 93.75 66.7575 93.75 69.4286V139.929H103.125V19.0714ZM112.5 139.929H131.25V19.0714H112.5V139.929ZM84.375 139.929V69.4286H65.625V139.929H84.375ZM37.5 139.929V109.714H18.75V139.929H37.5Z" fill="#9AC834"/>
</svg>
